<svg xmlns="http://www.w3.org/2000/svg" width="16" height="16" viewBox="0 0 16 16"><rect x="1" y="1" width="14" height="14" rx="3.5" fill="#F2D64B" fill-opacity=".16"/><path d="M5.11 11.3Q4.1 11.3 3.51 10.75Q2.92 10.2 2.92 9.27H4.23Q4.23 9.67 4.47 9.92Q4.7 10.16 5.11 10.16Q5.51 10.16 5.75 9.92Q5.98 9.69 5.98 9.29V6.03H4.54V4.8H7.3V9.29Q7.3 10.22 6.71 10.76Q6.12 11.3 5.11 11.3ZM10.63 11.29Q9.96 11.29 9.46 11.06Q8.96 10.83 8.68 10.42Q8.41 10.01 8.41 9.45H9.73Q9.73 9.77 9.98 9.96Q10.23 10.15 10.66 10.15Q11.07 10.15 11.3 9.96Q11.53 9.78 11.53 9.46Q11.53 9.17 11.36 8.97Q11.18 8.77 10.87 8.7L10.22 8.55Q9.4 8.36 8.95 7.84Q8.5 7.32 8.5 6.56Q8.5 6 8.76 5.58Q9.02 5.17 9.49 4.94Q9.96 4.71 10.61 4.71Q11.59 4.71 12.17 5.2Q12.74 5.69 12.74 6.51H11.43Q11.43 6.2 11.21 6.03Q11 5.85 10.6 5.85Q10.22 5.85 10.02 6.02Q9.81 6.19 9.81 6.51Q9.81 6.79 9.98 6.99Q10.14 7.18 10.44 7.25L11.12 7.41Q11.97 7.61 12.41 8.11Q12.85 8.61 12.85 9.39Q12.85 9.96 12.57 10.38Q12.3 10.81 11.8 11.05Q11.31 11.29 10.63 11.29Z" fill="#F2D64B"/></svg>
